<?xml version="1.0" encoding="UTF-8"?>
<!DOCTYPE svg PUBLIC "-//W3C//DTD SVG 1.1//EN" "http://www.w3.org/Graphics/SVG/1.1/DTD/svg11.dtd">
<!-- Creator: CorelDRAW 2019 -->
<svg xmlns="http://www.w3.org/2000/svg" xml:space="preserve" width="25mm" height="25mm" version="1.1" style="shape-rendering:geometricPrecision; text-rendering:geometricPrecision; image-rendering:optimizeQuality; fill-rule:evenodd; clip-rule:evenodd"
viewBox="0 0 2500 2500"
 xmlns:xlink="http://www.w3.org/1999/xlink"
 xmlns:xodm="http://www.corel.com/coreldraw/odm/2003">
 <defs>
  <style type="text/css">
   <![CDATA[
    .fil1 {fill:white}
    .fil2 {fill:#FEFEFE;fill-rule:nonzero}
    .fil0 {fill:#00844B;fill-rule:nonzero}
   ]]>
  </style>
 </defs>
 <g id="Слой_x0020_1">
  <metadata id="CorelCorpID_0Corel-Layer"/>
  <g id="_1247584520">
   <circle class="fil0" cx="1250.01" cy="1250" r="1250"/>
   <path class="fil1" d="M733.55 1597.91c-9.48,-12.21 -14.65,-27.19 -14.65,-42.76l0 -71.42c0,-18.62 7.41,-36.29 20.55,-49.46 13.15,-13.14 30.86,-20.55 49.46,-20.55l228.09 0c-51,-25.33 -97.67,-58.91 -138,-99.23 -98.67,-98.72 -153.63,-231.38 -153.63,-370.98 0,-139.62 54.93,-272.28 153.63,-371 98.7,-98.7 231.38,-153.67 370.98,-153.67 139.6,0 272.3,54.97 371,153.67 98.69,98.72 153.65,231.38 153.65,371 0,139.6 -54.96,272.28 -153.65,370.98 -40.33,40.32 -87.02,73.9 -138.02,99.23l228.17 0c18.58,0 36.25,7.54 49.38,20.63 13.18,13.11 20.59,30.78 20.59,49.38l0 71.42c0,15.6 -5.19,30.59 -14.69,42.81 9.48,12.21 14.69,27.14 14.69,42.74l0 71.42c0,15.59 -5.21,30.54 -14.71,42.76 9.52,12.22 14.71,27.21 14.71,42.78l0 71.42c0,18.63 -7.39,36.33 -20.57,49.47 -13.11,13.09 -30.84,20.55 -49.4,20.55l-922.22 0c-18.6,0 -36.31,-7.42 -49.46,-20.55 -13.14,-13.18 -20.55,-30.84 -20.55,-49.47l0 -71.42c0,-15.57 5.19,-30.54 14.67,-42.76 -9.48,-12.22 -14.67,-27.19 -14.67,-42.78l0 -71.42c0,-15.6 5.17,-30.57 14.65,-42.79zm978.12 184.18l-923.12 0c-3.99,0.13 -7.82,1.77 -10.64,4.59 -2.9,2.93 -4.61,6.86 -4.61,10.98l0 71.42c0,4.12 1.69,8.05 4.61,10.96 2.93,2.95 6.84,4.61 11,4.61l922.22 0c4.1,0 8.05,-1.56 10.94,-4.48 2.92,-2.95 4.63,-6.9 4.63,-11.09l0 -71.42c0,-4.14 -1.73,-8.05 -4.63,-11 -2.8,-2.84 -6.54,-4.46 -10.4,-4.57zm0 -156.97l-923.14 0c-4.02,0.11 -7.8,1.78 -10.62,4.6 -2.92,2.92 -4.61,6.83 -4.61,10.98l0 71.42c0,4.16 1.69,8.05 4.61,11 2.82,2.82 6.62,4.46 10.47,4.57l923.14 0c4.01,-0.11 7.77,-1.77 10.61,-4.59 2.91,-2.91 4.57,-6.86 4.57,-10.98l0 -71.42c0,-4.13 -1.64,-8.12 -4.57,-11.03 -2.82,-2.81 -6.62,-4.44 -10.46,-4.55zm-923.89 -54.44l924.33 0c3.76,-0.21 7.31,-1.73 9.96,-4.42 2.92,-2.97 4.63,-6.92 4.63,-11.11l0 -71.42c0,-4.16 -1.71,-8.07 -4.63,-11.02 -2.91,-2.95 -6.82,-4.55 -10.94,-4.55l-922.22 0c-4.14,0 -8.09,1.65 -11,4.57 -2.92,2.93 -4.61,6.86 -4.61,11l0 71.42c0,4.15 1.71,8.08 4.61,11 2.69,2.7 6.22,4.32 9.87,4.53zm794.71 -959.68c-88.47,-88.49 -207.37,-137.72 -332.51,-137.72 -125.14,0 -244.02,49.25 -332.49,137.74 -88.49,88.47 -137.72,207.35 -137.72,332.49 0,125.12 49.23,244.04 137.72,332.49 88.47,88.47 207.35,137.72 332.49,137.72 125.14,0 244.04,-49.21 332.51,-137.72 88.47,-88.47 137.74,-207.35 137.74,-332.49 0,-125.14 -49.25,-244.04 -137.74,-332.51z"/>
   <path class="fil2" d="M1249.98 424.26c143.36,0 273.2,58.16 367.15,152.1 93.96,93.97 152.07,223.77 152.07,367.15 0,143.36 -58.11,273.18 -152.07,367.13 -45.34,45.35 -99.06,82.36 -158.58,108.5l252.58 0c17.69,0 33.88,7.33 45.56,19.06 11.72,11.59 18.99,27.74 18.99,45.53l0 71.42c0,16.39 -6.18,31.4 -16.32,42.81 10.17,11.47 16.32,26.44 16.32,42.74l0 71.42c0,16.38 -6.2,31.35 -16.34,42.78 10.16,11.36 16.34,26.38 16.34,42.76l0 71.42c0,17.79 -7.27,33.94 -18.97,45.62 -11.7,11.67 -27.89,18.97 -45.58,18.97l-922.22 0c-17.79,0 -33.96,-7.26 -45.62,-18.97 -11.7,-11.68 -18.97,-27.83 -18.97,-45.62l0 -71.42c0,-16.38 6.18,-31.38 16.3,-42.76 -10.12,-11.41 -16.3,-26.4 -16.3,-42.78l0 -71.42c0,-16.39 6.16,-31.38 16.28,-42.79 -10.12,-11.38 -16.28,-26.37 -16.28,-42.76l0 -71.42c0,-17.79 7.27,-33.94 18.97,-45.62 11.66,-11.7 27.83,-18.97 45.62,-18.97l252.5 0c-59.52,-26.14 -113.22,-63.15 -158.56,-108.5 -93.94,-93.95 -152.05,-223.77 -152.05,-367.13 0,-143.38 58.11,-273.18 152.05,-367.15 93.95,-93.94 223.77,-152.1 367.13,-152.1zm461.69 1352.4l-0.26 0 -0.28 0 -922.22 0 -0.28 0 -0.25 0c-5.55,0.17 -10.64,2.52 -14.31,6.2 -3.8,3.82 -6.2,9.08 -6.2,14.8l0 71.42c0,5.75 2.4,11.02 6.2,14.8 3.8,3.83 9.08,6.2 14.84,6.2l922.22 0c5.81,0 11.06,-2.33 14.8,-6.09 3.83,-3.89 6.2,-9.16 6.2,-14.91l0 -71.42c0,-5.72 -2.37,-10.98 -6.2,-14.8 -3.63,-3.74 -8.67,-6.05 -14.26,-6.2zm0 -156.96l-0.26 0 -0.28 0 -922.22 0 -0.28 0 -0.25 0c-5.55,0.15 -10.64,2.48 -14.31,6.19 -3.8,3.78 -6.2,9.04 -6.2,14.81l0 71.42c0,5.77 2.4,11 6.2,14.82 3.67,3.7 8.76,6.02 14.31,6.17l0.25 0 0.28 0 922.22 0 0.28 0 0.26 0c5.55,-0.15 10.61,-2.47 14.28,-6.17 3.81,-3.76 6.18,-9.03 6.18,-14.82l0 -71.42c0,-5.79 -2.37,-11.09 -6.15,-14.87 -3.66,-3.65 -8.74,-5.98 -14.31,-6.13zm-922.76 -43.59l922.22 0 1.22 0c5.32,-0.3 10.1,-2.57 13.58,-6.05 3.83,-3.93 6.2,-9.18 6.2,-14.91l0 -71.42c0,-5.74 -2.37,-11.02 -6.2,-14.84 -3.74,-3.83 -8.99,-6.15 -14.8,-6.15l-461.15 0 -461.07 0c-5.76,0 -11.04,2.37 -14.84,6.15 -3.8,3.82 -6.2,9.1 -6.2,14.84l0 71.42c0,5.73 2.4,10.98 6.2,14.83 3.52,3.52 8.33,5.83 13.62,6.13l1.22 0zm797.42 -968.95c-86.05,-86.08 -204.97,-139.3 -336.35,-139.3 -131.33,0 -250.26,53.22 -336.33,139.32 -86.08,86.03 -139.3,204.95 -139.3,336.33 0,131.33 53.22,250.28 139.3,336.33 86.07,86.08 205,139.3 336.33,139.3 131.38,0 250.3,-53.22 336.35,-139.3 86.06,-86.07 139.32,-205 139.32,-336.33 0,-131.38 -53.26,-250.3 -139.32,-336.35z"/>
   <path class="fil2" d="M1003.04 1082.23l0 55.66 86.59 0 0 132.54 65.39 0 0 -132.54 227.08 0 0 -55.66 -227.08 0 0 -74.23 117.51 0c165.24,0 224.44,-98.08 224.44,-195.28 0,-74.22 -32.69,-196.16 -224.44,-196.16l-182.9 0 0 334.01 -86.59 0 0 57.43 86.59 0 0 74.23 -86.59 0zm151.98 -406.46l118.4 0c116.63,0 158.16,68.03 158.16,137.84 0,68.04 -41.53,136.96 -158.16,136.96l-118.4 0 0 -274.8z"/>
  </g>
 </g>
</svg>
