<?xml version="1.0" encoding="UTF-8"?>
<!DOCTYPE svg PUBLIC "-//W3C//DTD SVG 1.1//EN" "http://www.w3.org/Graphics/SVG/1.1/DTD/svg11.dtd">
<!-- Creator: CorelDRAW 2019 -->
<svg xmlns="http://www.w3.org/2000/svg" xml:space="preserve" width="25mm" height="25mm" version="1.1" style="shape-rendering:geometricPrecision; text-rendering:geometricPrecision; image-rendering:optimizeQuality; fill-rule:evenodd; clip-rule:evenodd"
viewBox="0 0 2500 2500"
 xmlns:xlink="http://www.w3.org/1999/xlink"
 xmlns:xodm="http://www.corel.com/coreldraw/odm/2003">
 <defs>
  <style type="text/css">
   <![CDATA[
    .fil2 {fill:#FEFEFE}
    .fil1 {fill:#FEFEFE;fill-rule:nonzero}
    .fil0 {fill:#00844B;fill-rule:nonzero}
   ]]>
  </style>
 </defs>
 <g id="Слой_x0020_1">
  <metadata id="CorelCorpID_0Corel-Layer"/>
  <g id="_1306570480">
   <circle class="fil0" cx="1250" cy="1249.99" r="1250"/>
   <path class="fil1" d="M2002.29 643.7l-791.59 0 0 1156.37 791.59 0 0 -1156.37zm-815.09 -46.99l862.07 0 0 1250.35 -885.56 0 0 -1250.35 23.49 0z"/>
   <path class="fil2" d="M536.66 1162.03l141.5 0c42.08,0 76.19,34.11 76.19,76.18l0 94.34c0,42.08 -34.11,76.19 -76.19,76.19l-141.5 0c-42.07,0 -76.18,-34.11 -76.18,-76.19l0 -94.34c0,-42.07 34.11,-76.18 76.18,-76.18zm159.68 76.18c0,-10.03 -8.14,-18.17 -18.18,-18.17l-141.5 0c-10.04,0 -18.15,8.14 -18.15,18.17l0 94.34c0,10.04 8.11,18.16 18.15,18.16l141.5 0c10.04,0 18.18,-8.12 18.18,-18.16l0 -94.34zm152.35 18.16l210.72 0 0 58.03 -210.72 0 0 18.15c0,10.04 8.14,18.16 18.18,18.16l192.54 0 0 58.01 -192.54 0c-42.08,0 -76.19,-34.09 -76.19,-76.17l0 -94.34c0,-42.07 34.11,-76.18 76.19,-76.18l192.54 0 0 58.01 -192.54 0c-10.04,0 -18.18,8.14 -18.18,18.17l0 18.16zm-353.55 -188.68l161.11 -322.24c16.92,-33.83 51.41,-55.12 89.24,-55.12l313.92 0 0 58 -313.92 0c-15.83,0 -30.27,8.93 -37.34,23.09l-148.12 296.27 499.38 0 0 58.01 -569.93 0c-36.07,0 -65.31,29.26 -65.31,65.33l0 254.04 635.24 0 0 57.93 -628.22 0c0.94,1.88 1.97,3.69 3.04,5.38 0.7,1.09 1.34,2.24 2.09,3.29 1.84,2.58 3.87,5.02 7.28,8.75 2.72,2.67 5.64,5.11 8.76,7.27 0.85,0.59 1.84,1.11 2.73,1.66 2.38,1.52 4.85,2.82 7.39,4 1.18,0.55 2.4,1.02 3.59,1.49 2.57,0.98 5.21,1.8 7.88,2.48 1.16,0.28 2.33,0.62 3.61,0.85 3.91,0.79 7.93,1.22 11.92,1.22l569.93 0 0 58.03 -352.24 0 0 136.08c0,42.07 -34.09,76.18 -76.17,76.18l-188.68 0c-42.07,0 -76.18,-34.11 -76.18,-76.18l0 -542.47c0,-68.09 55.25,-123.34 123.34,-123.34l5.66 0zm117.71 529.73l0 154.23 18.15 0c10.04,0 18.16,-8.11 18.16,-18.15l0 -136.08 -36.31 0zm-94.34 0l0 154.23 36.31 0 0 -154.23 -36.31 0zm-94.34 -19.11l0 155.19c0,10.04 8.11,18.15 18.15,18.15l18.2 0 0 -158.01c-0.26,-0.08 -0.53,-0.15 -0.81,-0.21 -4.96,-1.22 -9.83,-2.76 -14.7,-4.59 -2.47,-1.01 -4.93,-2.03 -7.37,-3.17 -4.4,-2.05 -8.67,-4.4 -12.81,-6.96 -0.21,-0.15 -0.45,-0.28 -0.66,-0.4z"/>
   <path class="fil2" d="M1895.09 1057.65c3.88,0 6.98,3.05 6.98,6.94l0 36.27c0,3.84 -3.16,6.96 -6.98,6.96l-406.39 0c-3.83,0 -6.99,-3.14 -6.99,-6.96l0 -36.27c0,-3.82 3.19,-6.94 6.99,-6.94l406.39 0zm-406.39 115.7c-3.87,0 -6.99,-3.1 -6.99,-6.96l0 -36.25c0,-3.82 3.16,-6.98 6.99,-6.98l202.37 0c3.82,0 6.96,3.18 6.96,6.98l0 36.25c0,3.8 -3.16,6.96 -6.96,6.96l-202.37 0zm406.39 97.07c3.91,0 6.98,3.08 6.98,6.99l0 36.2c0,3.82 -3.16,6.98 -6.98,6.98l-406.39 0c-3.83,0 -6.99,-3.16 -6.99,-6.98l0 -36.2c0,-3.85 3.14,-6.99 6.99,-6.99l406.39 0zm-406.39 115.68c-3.87,0 -6.99,-3.03 -6.99,-6.92l0 -36.25c0,-3.84 3.14,-6.98 6.99,-6.98l202.37 0c3.84,0 6.96,3.16 6.96,6.98l0 36.25c0,3.82 -3.16,6.92 -6.96,6.92l-202.37 0zm406.39 97.1c3.91,0 6.98,3.05 6.98,6.96l0 36.27c0,3.82 -3.18,6.94 -6.98,6.94l-406.39 0c-3.8,0 -6.99,-3.12 -6.99,-6.94l0 -36.27c0,-3.85 3.16,-6.96 6.99,-6.96l406.39 0zm-204.02 65.65c3.52,0 6.34,2.69 6.96,6.99l0 36.24c0,3.83 -3.16,6.94 -6.96,6.94l-202.37 0c-3.8,0 -6.99,-3.14 -6.99,-6.94l0 -36.24c0,-3.85 3.14,-6.99 6.99,-6.99l202.37 0zm-346.52 -436.14l77.98 -77.62 41.46 41.74 -81.72 81.44 -37.87 37.63 -74.24 -74.52 41.73 -41.6 32.66 32.93zm0 212.78l77.98 -77.6 41.46 41.73 -81.72 81.42 -37.87 37.62 -74.24 -74.5 41.73 -41.55 32.66 32.88zm0 212.79l77.98 -77.62 41.46 41.76 -119.59 119.01 -74.24 -74.46 41.73 -41.62 32.66 32.93zm550.54 -693.38c3.88,0 6.98,3.05 6.98,6.94l0 36.24c0,3.83 -3.18,6.95 -6.98,6.95l-406.39 0c-3.8,0 -6.99,-3.12 -6.99,-6.95l0 -36.24c0,-3.82 3.19,-6.94 6.99,-6.94l406.39 0zm-406.39 115.67c-3.89,0 -6.99,-3.09 -6.99,-6.98l0 -36.25c0,-3.84 3.16,-6.94 6.99,-6.94l202.37 0c3.82,0 6.96,3.12 6.96,6.94l0 36.25c0,3.82 -3.14,6.98 -6.96,6.98l-202.37 0zm-144.15 -60.63l77.98 -77.62 41.46 41.76 -81.72 81.42 -37.87 37.63 -74.24 -74.52 41.73 -41.61 32.66 32.94z"/>
  </g>
 </g>
</svg>
