<?xml version="1.0" encoding="UTF-8"?>
<!DOCTYPE svg PUBLIC "-//W3C//DTD SVG 1.1//EN" "http://www.w3.org/Graphics/SVG/1.1/DTD/svg11.dtd">
<!-- Creator: CorelDRAW 2019 -->
<svg xmlns="http://www.w3.org/2000/svg" xml:space="preserve" width="25mm" height="25mm" version="1.1" style="shape-rendering:geometricPrecision; text-rendering:geometricPrecision; image-rendering:optimizeQuality; fill-rule:evenodd; clip-rule:evenodd"
viewBox="0 0 2500 2500"
 xmlns:xlink="http://www.w3.org/1999/xlink"
 xmlns:xodm="http://www.corel.com/coreldraw/odm/2003">
 <defs>
  <style type="text/css">
   <![CDATA[
    .fil2 {fill:#FEFEFE}
    .fil1 {fill:white}
    .fil0 {fill:#00844B;fill-rule:nonzero}
   ]]>
  </style>
 </defs>
 <g id="Слой_x0020_1">
  <metadata id="CorelCorpID_0Corel-Layer"/>
  <g id="_1522431160">
   <circle class="fil0" cx="1250" cy="1250" r="1250"/>
   <path class="fil1" d="M1402.01 896.41l399.3 0c116.42,0 176.06,144.21 92.09,225.5l-8.56 8.27 8.65 8.16c52.14,49.1 52.11,138.55 0,187.65l-8.78 8.27 8.78 8.26c52.11,49.11 52.14,138.54 0,187.64l-8.65 8.16 8.56 8.26c83.99,81.29 24.33,225.51 -92.09,225.51l-557.35 0 -250.31 -107.26 0 107.26 -426.46 0 0 -916.5 426.46 0 0 98.08 21.04 -34.17c33.09,-53.8 81.29,-103.8 90.56,-168.63l37.55 -262.81 56.88 0c111.58,0 202.33,90.77 202.33,202.35l0 206zm-467.33 816.73l0 -798.58 -308.54 0 0 798.58 308.54 0zm-163.32 -104.38l0 -58.97 58.97 0 0 58.97 -58.97 0zm422.6 -1061.97l-30.33 212.41c-2.44,17.17 -6.52,33.96 -12.71,50.19 -12.75,33.49 -33.75,64.1 -53.95,93.49 -34.48,50.21 -68.97,100.41 -101.56,151.88l-1.76 2.76 0 543.14 262.46 112.48 545.03 0c96.28,-3.95 96.34,-141.25 0.81,-145.2l-254.7 -0.02 0 -58.97 253.89 0c96.28,-3.95 96.34,-141.22 0.81,-145.19l-254.7 -0.03 0 -58.95 253.89 0c96.28,-3.97 96.34,-141.24 0.81,-145.21l-254.7 -0.02 0 -58.95 253.89 0c96.26,-3.95 96.34,-141.23 0.81,-145.2l-458.89 -0.02 0 -264.97c0,-77.3 -61.66,-141.01 -138.96,-143.32l-10.14 -0.3z"/>
   <path class="fil2" d="M1147.49 493.48l-36.87 258.17c-9.46,66.22 -57.14,115.16 -91.3,170.69l-31.08 50.51 0 -111.84 -415.63 0 0 905.66 415.63 0 0 -110.08 256.84 110.08 556.23 0c111.67,0 168.88,-138.28 88.31,-216.18l-12.65 -12.23 12.81 -12.05c49.86,-46.94 49.84,-132.79 -0.01,-179.73l-12.97 -12.22 12.97 -12.22c49.85,-46.94 49.87,-132.8 0.01,-179.74l-12.81 -12.06 12.65 -12.23c80.58,-77.89 23.35,-216.18 -88.31,-216.18l-404.72 0 0 -211.43c0,-108.57 -88.33,-196.92 -196.9,-196.92l-52.2 0zm-207.37 1225.07l-319.41 0 0 -809.42 319.41 0 0 809.42zm612.55 -408.35l0 48.11 249.33 0.01c102.51,4.27 102.48,151.82 -0.69,156.06l-248.64 0 0 48.12 249.33 0.02c102.51,4.23 102.48,151.8 -0.69,156.03l-546.32 0 -266.75 -114.32 0 -548.29 2.56 -4.09c32.59,-51.97 67.03,-101.56 101.71,-152.05 19.76,-28.76 40.88,-59.56 53.35,-92.33 6.06,-15.94 10.01,-32.17 12.41,-49.04l31 -217.22 15.01 0.46c80.19,2.43 144.21,68.49 144.21,148.73l0 259.55 453.51 0.02c102.51,4.27 102.47,151.82 -0.69,156.05l-248.64 0 0 48.1 249.33 0.02c102.51,4.27 102.48,151.82 -0.69,156.06l-248.64 0zm-775.89 293.13l48.11 0 0 -48.12 -48.11 0 0 48.12z"/>
  </g>
 </g>
</svg>
