<?xml version="1.0" encoding="utf-8"?>
<!-- Generator: Adobe Illustrator 22.0.1, SVG Export Plug-In . SVG Version: 6.00 Build 0)  -->
<svg version="1.1" id="Слой_1" xmlns="http://www.w3.org/2000/svg" xmlns:xlink="http://www.w3.org/1999/xlink" x="0px" y="0px"
	 viewBox="0 0 300 129" style="enable-background:new 0 0 300 129;" xml:space="preserve">
<style type="text/css">
	.st0{fill:#79A45C;}
	.st1{fill:#4A8FB5;}
	.st2{fill:#DA7243;}
	.st3{enable-background:new    ;}
	.st4{fill:#FFFFFF;}
</style>
<g>
	<g>
		<polygon class="st0" points="126.5,17.9 126.2,43.7 149,31.2 		"/>
		<polygon class="st1" points="150.7,34.9 128.5,48.4 150.7,61.7 		"/>
		<polygon class="st2" points="150.7,34.8 150.7,61.7 174.9,48.4 174.9,21.5 		"/>
	</g>
	<g class="st3">
		<path class="st4" d="M11.6,75.5v-2.7h17.7v2.7h-0.8c-0.7,0-1.1,0.1-1.3,0.3c-0.2,0.2-0.3,0.7-0.3,1.5V88c0,0.8,0.1,1.3,0.3,1.5
			c0.2,0.2,0.7,0.3,1.5,0.3h0.6l2.1,5.8l-2.6,0.9c-0.4-1.1-1.1-2.1-1.9-2.9s-2.2-1.2-4-1.2h-8.6c-1.8,0-3.1,0.4-4,1.1
			c-0.8,0.8-1.5,1.7-1.9,2.9l-2.6-0.9l2.1-5.8h0.7c0.9,0,1.6-0.5,1.9-1.5L14,77.4c0.1-0.3,0.1-0.5,0.1-0.7c0-0.8-0.6-1.2-1.7-1.2
			H11.6z M22,89.4V75.8h-4.3l-3.6,12.3C14,88.3,14,88.5,14,88.7c0,0.5,0.5,0.7,1.4,0.7H22z"/>
		<path class="st4" d="M49,87.3l1.9,2c-1.1,1.3-2.2,2.2-3.4,2.8c-1.2,0.6-2.4,0.9-3.7,0.9c-2.2,0-4-0.7-5.4-2.2
			c-1.5-1.5-2.2-3.2-2.2-5.3c0-1.4,0.3-2.6,1-3.7s1.6-2,2.7-2.6c1.2-0.6,2.5-1,4-1c0.9,0,1.8,0.1,2.6,0.4c0.8,0.3,1.5,0.7,2,1.2
			c0.6,0.5,1,1.1,1.4,1.8c0.4,0.7,0.6,1.5,0.7,2.2c0.1,0.4,0.1,1,0.1,1.8h-9.5c0,1.2,0.4,2.2,1.1,2.9c0.7,0.7,1.5,1.1,2.5,1.1
			c0.6,0,1.3-0.2,2.1-0.6C47.5,88.6,48.3,88,49,87.3z M46.2,83.2c-0.1-0.6-0.2-1-0.4-1.3c-0.2-0.3-0.5-0.6-0.8-0.8s-0.7-0.3-1.1-0.3
			c-0.4,0-0.8,0.1-1.2,0.3c-0.4,0.2-0.7,0.5-0.9,0.8s-0.4,0.8-0.4,1.3H46.2z"/>
		<path class="st4" d="M70.5,77.7h1.9l2.2,5.5l-2.5,1.1c-0.9-2.1-2.2-3.1-3.9-3.1c-0.5,0-0.7,0.3-0.7,0.9v6.4c0,0.5,0.1,0.9,0.3,1
			c0.2,0.1,0.7,0.2,1.4,0.2h0.4v2.7h-8.7v-2.7h0.4c0.8,0,1.2-0.1,1.4-0.2c0.2-0.1,0.3-0.5,0.3-1v-6.4c0-0.6-0.3-0.9-0.8-0.9
			c-1.7,0-3,1-3.9,3.1l-2.5-1.1l2.2-5.5h1.9l0.2,0.7h10.2L70.5,77.7z"/>
		<path class="st4" d="M92.3,87.3l1.9,2c-1.1,1.3-2.2,2.2-3.4,2.8c-1.2,0.6-2.4,0.9-3.7,0.9c-2.2,0-4-0.7-5.4-2.2
			c-1.5-1.5-2.2-3.2-2.2-5.3c0-1.4,0.3-2.6,1-3.7s1.6-2,2.7-2.6c1.2-0.6,2.5-1,4-1c0.9,0,1.8,0.1,2.6,0.4c0.8,0.3,1.5,0.7,2,1.2
			c0.6,0.5,1,1.1,1.4,1.8c0.4,0.7,0.6,1.5,0.7,2.2c0.1,0.4,0.1,1,0.1,1.8h-9.5c0,1.2,0.4,2.2,1.1,2.9c0.7,0.7,1.5,1.1,2.5,1.1
			c0.6,0,1.3-0.2,2.1-0.6C90.9,88.6,91.6,88,92.3,87.3z M89.5,83.2c-0.1-0.6-0.2-1-0.4-1.3c-0.2-0.3-0.5-0.6-0.8-0.8
			s-0.7-0.3-1.1-0.3c-0.4,0-0.8,0.1-1.2,0.3c-0.4,0.2-0.7,0.5-0.9,0.8s-0.4,0.8-0.4,1.3H89.5z"/>
		<path class="st4" d="M108.7,78.4v2.7h-0.4c-0.5,0-0.9,0.1-1,0.2c-0.1,0.1-0.2,0.5-0.2,1.1v3.1l4.5-3.1c0-0.6-0.1-1-0.2-1.1
			s-0.5-0.2-1-0.2H110v-2.7h8.2v2.7h-0.4c-0.8,0-1.2,0.1-1.4,0.2c-0.2,0.1-0.3,0.5-0.3,1v6.2c0,0.5,0.1,0.9,0.3,1
			c0.2,0.1,0.7,0.2,1.4,0.2h0.4v2.7H110v-2.7h0.4c0.5,0,0.9-0.1,1-0.2s0.2-0.5,0.2-1.1v-3.1l-4.5,3.1c0,0.6,0.1,1,0.2,1.1
			c0.1,0.1,0.5,0.2,1,0.2h0.4v2.7h-8.2v-2.7h0.4c0.8,0,1.2-0.1,1.4-0.2c0.2-0.1,0.3-0.5,0.3-1v-6.2c0-0.5-0.1-0.9-0.3-1
			s-0.7-0.2-1.4-0.2h-0.4v-2.7H108.7z M102.9,72.5c0-0.5,0.2-1,0.6-1.3s0.8-0.5,1.3-0.5c0.5,0,0.8,0.1,1.1,0.4s0.5,0.6,0.8,1.1
			c0.3,0.7,0.6,1.1,0.9,1.3c0.3,0.2,0.9,0.3,1.7,0.3c0.8,0,1.3-0.1,1.7-0.3c0.3-0.2,0.6-0.7,0.9-1.3c0.3-0.5,0.5-0.9,0.8-1.1
			c0.3-0.2,0.7-0.4,1.2-0.4c0.5,0,1,0.2,1.4,0.5s0.5,0.8,0.5,1.3c0,0.9-0.5,1.8-1.6,2.5c-1.1,0.7-2.7,1.1-4.8,1.1
			c-1.3,0-2.4-0.1-3.2-0.3c-0.8-0.2-1.6-0.6-2.2-1.2S102.9,73.3,102.9,72.5z"/>
		<path class="st4" d="M130.9,92.5h-7.5v-2.7c0.7,0,1.2-0.1,1.4-0.2s0.5-0.5,0.7-1l4.6-10.2h3.8l4.8,10.5c0.3,0.6,0.8,0.9,1.5,0.9
			h0.4v2.7H132v-2.7h0.4c0.6,0,0.9,0,1.1-0.1c0.2-0.1,0.2-0.2,0.2-0.4c0-0.1-0.1-0.4-0.2-0.7l-2.2-5.5l-2.3,5.5
			c-0.1,0.3-0.2,0.6-0.2,0.7c0,0.4,0.4,0.5,1.3,0.5h0.7V92.5z"/>
		<path class="st4" d="M153.8,78.4v2.7h-0.4c-0.5,0-0.9,0.1-1,0.2c-0.1,0.1-0.2,0.5-0.2,1.1v3.1l4.5-3.1c0-0.6-0.1-1-0.2-1.1
			c-0.1-0.1-0.5-0.2-1-0.2H155v-2.7h8.2v2.7h-0.4c-0.8,0-1.2,0.1-1.4,0.2c-0.2,0.1-0.3,0.5-0.3,1v6.2c0,0.5,0.1,0.9,0.3,1
			c0.2,0.1,0.7,0.2,1.4,0.2h0.4v2.7H155v-2.7h0.4c0.5,0,0.9-0.1,1-0.2c0.1-0.1,0.2-0.5,0.2-1.1v-3.1l-4.5,3.1c0,0.6,0.1,1,0.2,1.1
			c0.1,0.1,0.5,0.2,1,0.2h0.4v2.7h-8.2v-2.7h0.4c0.8,0,1.2-0.1,1.4-0.2c0.2-0.1,0.3-0.5,0.3-1v-6.2c0-0.5-0.1-0.9-0.3-1
			s-0.7-0.2-1.4-0.2h-0.4v-2.7H153.8z"/>
		<path class="st4" d="M176.4,86.6v1.8c0,0.6,0.1,1,0.2,1.1c0.1,0.1,0.5,0.2,1,0.2h0.4v2.7h-8.2v-2.7h0.4c0.8,0,1.2-0.1,1.4-0.2
			c0.2-0.1,0.3-0.5,0.3-1v-6.2c0-0.5-0.1-0.9-0.3-1c-0.2-0.1-0.7-0.2-1.4-0.2h-0.4v-2.7h8.2v2.7h-0.4c-0.5,0-0.9,0.1-1,0.2
			c-0.1,0.1-0.2,0.5-0.2,1.1v1.5h4.5v-1.5c0-0.6-0.1-1-0.2-1.1c-0.1-0.1-0.5-0.2-1-0.2h-0.4v-2.7h8.2v2.7h-0.4
			c-0.8,0-1.2,0.1-1.4,0.2c-0.2,0.1-0.3,0.5-0.3,1v6.2c0,0.5,0.1,0.9,0.3,1c0.2,0.1,0.7,0.2,1.4,0.2h0.4v2.7h-8.2v-2.7h0.4
			c0.5,0,0.9-0.1,1-0.2c0.1-0.1,0.2-0.5,0.2-1.1v-1.8H176.4z"/>
		<path class="st4" d="M202.8,92.5h-8.7v-2.7h0.4c0.8,0,1.2-0.1,1.4-0.2c0.2-0.1,0.3-0.5,0.3-1v-6.2c0-0.5-0.1-0.9-0.3-1
			c-0.2-0.1-0.7-0.2-1.4-0.2h-0.4v-2.7H207l2.3,4.8l-2.5,1.1c-0.6-1-1.1-1.8-1.7-2.2c-0.5-0.4-1.4-0.7-2.7-0.7h-1.7v7.1
			c0,0.5,0.1,0.9,0.3,1c0.2,0.1,0.7,0.2,1.4,0.2h0.4V92.5z"/>
		<path class="st4" d="M221.6,78c1.6,0,3,0.3,4.2,0.9c1.2,0.6,2.1,1.5,2.8,2.6c0.6,1.1,1,2.4,1,3.8c0,2.2-0.7,4-2.2,5.4
			s-3.4,2.1-5.7,2.1c-2.4,0-4.4-0.7-5.8-2.1c-1.4-1.3-2.1-3.1-2.1-5.4c0-1.5,0.3-2.8,1-3.8c0.6-1.1,1.6-1.9,2.8-2.6
			C218.7,78.4,220.1,78,221.6,78z M221.7,81.1c-0.5,0-1,0.2-1.5,0.5c-0.5,0.3-0.8,0.8-1.1,1.4s-0.4,1.4-0.4,2.4c0,1,0.1,1.8,0.4,2.5
			c0.3,0.7,0.6,1.1,1.1,1.4c0.4,0.3,0.9,0.5,1.5,0.5c0.8,0,1.5-0.4,2.1-1.1c0.6-0.7,0.9-1.8,0.9-3.3c0-1.4-0.3-2.5-0.8-3.2
			C223.3,81.5,222.6,81.1,221.7,81.1z"/>
		<path class="st4" d="M249.3,71.7v7.9c0.8-1.1,2-1.6,3.6-1.6c1.7,0,2.9,0.7,3.9,2.1c0.9,1.4,1.4,3.1,1.4,5c0,2.2-0.5,4-1.6,5.4
			c-1,1.5-2.5,2.2-4.2,2.2c-1.2,0-2.2-0.3-3.1-1v3.3c0,0.4,0.1,0.7,0.3,0.8s0.6,0.2,1.3,0.2h0.7v2.7h-8.8v-2.7h0.5
			c0.7,0,1.2-0.1,1.4-0.2s0.2-0.5,0.2-1.2v-2.8c-0.9,0.7-1.9,1-3.1,1c-1.7,0-3.1-0.7-4.2-2.2s-1.6-3.3-1.6-5.5c0-2,0.5-3.7,1.4-5.1
			s2.2-2.1,3.8-2.1c1.6,0,2.8,0.5,3.6,1.6v-4h-2.1v-2.7c1.9-0.2,3.5-0.6,4.8-1.2H249.3z M244.8,82.4c-0.8-0.7-1.5-1-2.2-1
			c-0.7,0-1.2,0.4-1.5,1.1s-0.5,1.7-0.5,2.9c0,1.3,0.2,2.4,0.6,3.1c0.4,0.8,1,1.2,1.8,1.2c0.7,0,1.1-0.2,1.4-0.6s0.5-1.1,0.5-2V82.4
			z M249.3,82.4v4.6c0,0.9,0.2,1.6,0.5,2c0.3,0.4,0.8,0.6,1.4,0.6c0.8,0,1.3-0.4,1.8-1.1s0.6-1.8,0.6-3.1c0-1.4-0.2-2.4-0.6-3
			s-0.9-0.9-1.5-0.9C250.9,81.4,250.1,81.8,249.3,82.4z"/>
		<path class="st4" d="M266.1,79.9l-2.6-0.9l2.4-6.9h1.9l0.2,0.7h10.4v2.7h-0.8c-0.7,0-1.1,0.1-1.3,0.3c-0.2,0.2-0.3,0.6-0.3,1.1
			v3.7h3.4c2.3,0,4.1,0.6,5.4,1.7s1.9,2.6,1.9,4.2c0,1.6-0.6,3-1.8,4.2s-3.1,1.8-5.7,1.8h-10.4v-2.7h1c0.6,0,1-0.1,1.2-0.3
			s0.3-0.7,0.3-1.5V76.3c0-0.3,0-0.5-0.1-0.6s-0.2-0.1-0.5-0.1c-0.6,0-1.3,0.3-2.1,0.8S266.9,78.2,266.1,79.9z M276,89.3h2.2
			c1,0,1.8-0.2,2.4-0.7s0.9-1.1,0.9-2.1c0-0.7-0.2-1.3-0.5-1.7c-0.4-0.5-0.8-0.8-1.3-0.9c-0.5-0.2-1.2-0.2-2.1-0.2H276V89.3z"/>
	</g>
</g>
</svg>
